<svg width="41" height="40" viewBox="0 0 41 40" fill="none" xmlns="http://www.w3.org/2000/svg">
<g clip-path="url(#clip0_23_73)">
<path d="M20.25 0C14.8225 0 14.14 0.025 12.0075 0.12C9.875 0.22 8.4225 0.555 7.15 1.05C5.81523 1.55205 4.60623 2.33957 3.6075 3.3575C2.59019 4.35674 1.80277 5.5656 1.3 6.9C0.805 8.17 0.4675 9.625 0.37 11.75C0.275 13.8875 0.25 14.5675 0.25 20.0025C0.25 25.4325 0.275 26.1125 0.37 28.245C0.47 30.375 0.805 31.8275 1.3 33.1C1.8125 34.415 2.495 35.53 3.6075 36.6425C4.7175 37.755 5.8325 38.44 7.1475 38.95C8.4225 39.445 9.8725 39.7825 12.0025 39.88C14.1375 39.975 14.8175 40 20.25 40C25.6825 40 26.36 39.975 28.495 39.88C30.6225 39.78 32.08 39.445 33.3525 38.95C34.6864 38.4477 35.8945 37.6602 36.8925 36.6425C38.005 35.53 38.6875 34.415 39.2 33.1C39.6925 31.8275 40.03 30.375 40.13 28.245C40.225 26.1125 40.25 25.4325 40.25 20C40.25 14.5675 40.225 13.8875 40.13 11.7525C40.03 9.625 39.6925 8.17 39.2 6.9C38.6973 5.56556 37.9099 4.35669 36.8925 3.3575C35.8941 2.33919 34.685 1.55161 33.35 1.05C32.075 0.555 30.62 0.2175 28.4925 0.12C26.3575 0.025 25.68 0 20.245 0H20.2525H20.25ZM18.4575 3.605H20.2525C25.5925 3.605 26.225 3.6225 28.3325 3.72C30.2825 3.8075 31.3425 4.135 32.0475 4.4075C32.98 4.77 33.6475 5.205 34.3475 5.905C35.0475 6.605 35.48 7.27 35.8425 8.205C36.1175 8.9075 36.4425 9.9675 36.53 11.9175C36.6275 14.025 36.6475 14.6575 36.6475 19.995C36.6475 25.3325 36.6275 25.9675 36.53 28.075C36.4425 30.025 36.115 31.0825 35.8425 31.7875C35.5219 32.6559 35.0101 33.4411 34.345 34.085C33.645 34.785 32.98 35.2175 32.045 35.58C31.345 35.855 30.285 36.18 28.3325 36.27C26.225 36.365 25.5925 36.3875 20.2525 36.3875C14.9125 36.3875 14.2775 36.365 12.17 36.27C10.22 36.18 9.1625 35.855 8.4575 35.58C7.58875 35.2598 6.80281 34.7489 6.1575 34.085C5.49188 33.4401 4.97931 32.6541 4.6575 31.785C4.385 31.0825 4.0575 30.0225 3.97 28.0725C3.875 25.965 3.855 25.3325 3.855 19.99C3.855 14.65 3.875 14.02 3.97 11.9125C4.06 9.9625 4.385 8.9025 4.66 8.1975C5.0225 7.265 5.4575 6.5975 6.1575 5.8975C6.8575 5.1975 7.5225 4.765 8.4575 4.4025C9.1625 4.1275 10.22 3.8025 12.17 3.7125C14.015 3.6275 14.73 3.6025 18.4575 3.6V3.605ZM30.9275 6.925C30.6123 6.925 30.3002 6.98708 30.0091 7.10769C29.7179 7.2283 29.4533 7.40508 29.2304 7.62794C29.0076 7.8508 28.8308 8.11538 28.7102 8.40656C28.5896 8.69774 28.5275 9.00983 28.5275 9.325C28.5275 9.64017 28.5896 9.95226 28.7102 10.2434C28.8308 10.5346 29.0076 10.7992 29.2304 11.0221C29.4533 11.2449 29.7179 11.4217 30.0091 11.5423C30.3002 11.6629 30.6123 11.725 30.9275 11.725C31.564 11.725 32.1745 11.4721 32.6246 11.0221C33.0746 10.572 33.3275 9.96152 33.3275 9.325C33.3275 8.68848 33.0746 8.07803 32.6246 7.62794C32.1745 7.17786 31.564 6.925 30.9275 6.925ZM20.2525 9.73C18.8902 9.70875 17.5372 9.95871 16.2724 10.4654C15.0077 10.972 13.8563 11.7252 12.8854 12.6811C11.9145 13.6369 11.1434 14.7764 10.6171 16.0331C10.0908 17.2899 9.81975 18.6388 9.81975 20.0012C9.81975 21.3637 10.0908 22.7126 10.6171 23.9693C11.1434 25.2261 11.9145 26.3656 12.8854 27.3214C13.8563 28.2773 15.0077 29.0305 16.2724 29.5371C17.5372 30.0438 18.8902 30.2938 20.2525 30.2725C22.9489 30.2304 25.5205 29.1298 27.4124 27.2081C29.3044 25.2865 30.3648 22.6979 30.3647 20.0012C30.3648 17.3046 29.3044 14.716 27.4124 12.7944C25.5205 10.8727 22.9489 9.77207 20.2525 9.73ZM20.2525 13.3325C22.0208 13.3325 23.7167 14.035 24.9671 15.2854C26.2175 16.5358 26.92 18.2317 26.92 20C26.92 21.7683 26.2175 23.4642 24.9671 24.7146C23.7167 25.965 22.0208 26.6675 20.2525 26.6675C18.4842 26.6675 16.7883 25.965 15.5379 24.7146C14.2875 23.4642 13.585 21.7683 13.585 20C13.585 18.2317 14.2875 16.5358 15.5379 15.2854C16.7883 14.035 18.4842 13.3325 20.2525 13.3325Z" fill="white"/>
</g>
<defs>
<clipPath id="clip0_23_73">
<rect width="40" height="40" fill="white" transform="translate(0.25)"/>
</clipPath>
</defs>
</svg>
