<svg width="30" height="27" viewBox="0 0 30 27" fill="none" xmlns="http://www.w3.org/2000/svg">
<path d="M25.5614 22.4053H21.1164V16.3036C21.1164 14.8487 21.0867 12.9756 18.8045 12.9756C16.4893 12.9756 16.1351 14.561 16.1351 16.1977V22.4049H11.6902V9.85746H15.9573V11.5722H16.0171C16.4441 10.9322 17.0612 10.4057 17.8026 10.0487C18.5441 9.6918 19.3821 9.51782 20.2274 9.54531C24.7327 9.54531 25.5633 12.1428 25.5633 15.522L25.5614 22.4053ZM6.67453 8.14241C5.24988 8.14261 4.09477 7.13044 4.09453 5.88172C4.0943 4.63299 5.24895 3.62051 6.67359 3.62031C8.09824 3.62 9.25336 4.63217 9.25359 5.8809C9.25372 6.48056 8.98207 7.05571 8.4984 7.47982C8.01474 7.90393 7.35868 8.14227 6.67453 8.14241ZM8.89711 22.4054H4.44738V9.85746H8.89699V22.4053L8.89711 22.4054ZM27.7774 0.0019138H2.21379C1.00559 -0.0100013 0.0147656 0.838335 0 1.89734V24.3977C0.0142969 25.4572 1.005 26.3064 2.21367 26.2953H27.7774C28.9887 26.3084 29.9832 25.4593 30 24.3977V1.8956C29.9828 0.834534 28.9881 -0.0136991 27.7774 0.000167622" fill="#0A66C2"/>
</svg>
