<svg width="41" height="40" viewBox="0 0 41 40" fill="none" xmlns="http://www.w3.org/2000/svg">
<g clip-path="url(#clip0_23_75)">
<path d="M13.065 37.5C28.16 37.5 36.4175 24.9925 36.4175 14.165C36.4175 13.815 36.4175 13.46 36.4025 13.11C38.0101 11.9462 39.3977 10.5054 40.5 8.85502C38.9983 9.51715 37.4069 9.95354 35.7775 10.15C37.4938 9.12412 38.7793 7.50995 39.395 5.60752C37.7825 6.56283 36.0175 7.23346 34.1775 7.59002C32.9405 6.27258 31.3035 5.39982 29.5202 5.10692C27.7369 4.81402 25.9068 5.11733 24.3133 5.96987C22.7199 6.82241 21.452 8.1766 20.7061 9.82267C19.9602 11.4688 19.7779 13.3149 20.1875 15.075C16.9244 14.9114 13.732 14.0637 10.8176 12.5869C7.90317 11.1101 5.33171 9.03713 3.27 6.50252C2.22335 8.31023 1.90393 10.4485 2.37662 12.4832C2.8493 14.5179 4.07864 16.2963 5.815 17.4575C4.51385 17.4133 3.2413 17.0639 2.1 16.4375V16.55C2.10224 18.4437 2.75827 20.2786 3.95718 21.7444C5.1561 23.2103 6.82437 24.2172 8.68 24.595C7.97566 24.7891 7.24807 24.8858 6.5175 24.8825C6.00246 24.8841 5.48845 24.8364 4.9825 24.74C5.50697 26.3702 6.52818 27.7954 7.90312 28.8162C9.27805 29.837 10.9378 30.4021 12.65 30.4325C9.74139 32.717 6.1485 33.956 2.45 33.95C1.7983 33.9528 1.14706 33.9152 0.5 33.8375C4.25379 36.2307 8.61324 37.5014 13.065 37.5Z" fill="white"/>
</g>
<defs>
<clipPath id="clip0_23_75">
<rect width="40" height="40" fill="white" transform="translate(0.5)"/>
</clipPath>
</defs>
</svg>
