<svg width="41" height="40" viewBox="0 0 41 40" fill="none" xmlns="http://www.w3.org/2000/svg">
<path d="M17.4168 24.9999L26.0668 19.9999L17.4168 14.9999V24.9999ZM36.6835 11.9499C36.9002 12.7333 37.0502 13.7833 37.1502 15.1166C37.2668 16.4499 37.3168 17.5999 37.3168 18.5999L37.4168 19.9999C37.4168 23.6499 37.1502 26.3333 36.6835 28.0499C36.2668 29.5499 35.3002 30.5166 33.8002 30.9333C33.0168 31.1499 31.5835 31.2999 29.3835 31.3999C27.2168 31.5166 25.2335 31.5666 23.4002 31.5666L20.7502 31.6666C13.7668 31.6666 9.41683 31.3999 7.70016 30.9333C6.20016 30.5166 5.2335 29.5499 4.81683 28.0499C4.60016 27.2666 4.45016 26.2166 4.35016 24.8833C4.2335 23.5499 4.1835 22.3999 4.1835 21.3999L4.0835 19.9999C4.0835 16.3499 4.35016 13.6666 4.81683 11.9499C5.2335 10.4499 6.20016 9.48325 7.70016 9.06659C8.4835 8.84992 9.91683 8.69992 12.1168 8.59992C14.2835 8.48325 16.2668 8.43325 18.1002 8.43325L20.7502 8.33325C27.7335 8.33325 32.0835 8.59992 33.8002 9.06659C35.3002 9.48325 36.2668 10.4499 36.6835 11.9499Z" fill="white"/>
</svg>
